<svg width="90" height="90" viewBox="0 0 90 90" fill="none" xmlns="http://www.w3.org/2000/svg">
<path fill-rule="evenodd" clip-rule="evenodd" d="M49.7704 7.42664C47.7758 5.4064 45.6808 3.82544 43.5413 2.72835C39.3325 0.569858 35.506 0.583237 33.0432 2.76514L32.3029 1.93118C35.1281 -0.57294 39.4072 -0.64541 44.0486 1.73495C46.2918 2.88667 48.4838 4.53787 50.562 6.64285C53.026 9.13917 55.1399 12.0837 56.7431 15.2311L57.4266 12.0402L58.517 12.2732L57.4924 17.0663C57.4522 17.2547 57.3184 17.4086 57.1367 17.4743C57.0743 17.4966 57.0107 17.5078 56.9472 17.5078C56.8245 17.5078 56.7019 17.4676 56.6026 17.3885L51.6479 13.4417L52.3425 12.5687L55.3305 14.949C53.8365 12.2007 51.9467 9.63196 49.7704 7.42664ZM81.821 53.5024C82.0997 53.6641 82.2937 53.9383 82.355 54.255C83.2994 59.1272 83.2057 63.6437 82.0807 67.3208C81.9994 67.5906 81.8187 67.818 81.5746 67.9596L75.5439 71.4649L76.4827 73.9423C76.6756 74.4518 76.4727 75.0271 76.0011 75.3014L69.714 78.955C68.1464 79.8001 66.4763 80.2806 64.7191 80.3988C64.417 80.42 64.1104 80.43 63.7993 80.43C62.3187 80.43 60.7411 80.1903 59.0966 79.7165C58.7588 79.6195 58.4867 79.3686 58.363 79.0409L56.3104 73.6234C55.4207 73.2667 54.522 72.8274 53.6323 72.3134C53.2388 72.0871 52.8318 71.8329 52.4003 71.5452L49.2451 73.3793C48.8304 73.619 48.3074 73.5688 47.9473 73.251C47.0153 72.4282 46.1044 71.5452 45.2202 70.6098C44.7486 72.154 44.093 73.5331 43.2412 74.6915C43.1509 74.8142 43.0361 74.9179 42.9034 74.9948L36.6164 78.6473C36.5361 78.6941 36.448 78.7309 36.3588 78.7565L35.9675 78.8658L29.8042 82.4481C29.6615 82.5294 29.5031 82.5796 29.3404 82.5941C28.9702 82.6253 28.5956 82.6421 28.2199 82.6421C26.9522 82.6421 25.65 82.4603 24.3366 82.0991C22.7277 81.6609 21.0275 80.9273 19.2849 79.9216L19.1555 79.8469C18.8801 79.6864 18.6304 79.382 18.568 79.0698L17.6158 74.308C16.0605 73.2154 14.5721 71.9031 13.1751 70.398L10.9954 71.6166C10.5204 71.8808 9.92395 71.766 9.58278 71.3423C6.62266 67.6675 4.16425 63.3784 2.47068 58.9388C2.27557 58.4281 2.4796 57.8517 2.95233 57.5774L5.11305 56.3209C4.8332 55.39 4.61133 54.5036 4.43741 53.6306C4.23561 52.6194 4.09401 51.6037 4.01708 50.6036L0.373507 47.3536C0.134913 47.1417 -0.00110812 46.8374 6.80064e-06 46.5185C0.012271 42.4078 0.99675 38.9069 2.84641 36.3916C2.93672 36.269 3.05155 36.1653 3.18423 36.0884L9.47017 32.4348C9.5471 32.3902 9.62849 32.3556 9.71434 32.33L10.1135 32.2129L16.2835 28.6273C16.3267 28.6021 16.3755 28.5904 16.4245 28.5786C16.4514 28.5722 16.4782 28.5657 16.5042 28.5571C15.8542 27.4912 15.2622 26.3908 14.7683 25.2602C14.562 24.7897 14.7059 24.2379 15.1162 23.9268L16.0616 23.2099C15.7071 22.1741 15.4495 21.1395 15.2912 20.1216L13.2431 18.4982C12.9956 18.302 12.8439 18.011 12.8228 17.6966C12.7358 16.3631 12.7893 15.1925 12.9833 14.1177C13.1818 13.0273 13.5385 12.0094 14.0469 11.0918C14.1205 10.9569 14.2231 10.8398 14.3457 10.7462L18.0261 7.93766C18.0629 7.90867 18.1019 7.88303 18.1421 7.85961L22.6307 5.25181C22.7311 5.19383 22.8392 5.15146 22.9518 5.12693C24.8216 4.71553 26.9845 5.07565 29.2066 6.16716C29.4987 6.31098 29.7127 6.57411 29.7941 6.88963L30.4843 9.56656C30.938 9.84975 31.3829 10.1619 31.8099 10.4998C32.0753 10.7094 32.3484 10.9435 32.6361 11.2066L33.6953 10.5912C34.1546 10.3247 34.7355 10.4184 35.0878 10.813C36.9642 12.9191 38.5619 15.4188 39.7069 18.0411C39.9132 18.5127 39.7694 19.0646 39.3591 19.3757L38.4136 20.0914C38.7682 21.1283 39.0257 22.1652 39.184 23.1887L41.2321 24.812C41.2682 24.8409 41.2944 24.8772 41.3209 24.9137L41.3209 24.9137C41.3353 24.9337 41.3498 24.9537 41.3659 24.9726L45.606 22.5086C47.1713 21.6546 48.8404 21.1696 50.5942 21.0514C52.3067 20.931 54.1998 21.1595 56.2123 21.7315C56.5512 21.8274 56.8255 22.0782 56.9503 22.4083L59.0107 27.8379C59.9049 28.1958 60.8069 28.6362 61.6977 29.1502C62.0868 29.3743 62.4871 29.6241 62.9107 29.9061L66.0693 28.071C66.4841 27.8301 67.007 27.8803 67.3682 28.2003C71.0675 31.4704 74.4268 35.6725 77.0837 40.3519C77.3044 40.7387 77.2721 41.2215 77.0023 41.5772L75.0121 44.1939C75.5729 45.3311 76.049 46.4215 76.4615 47.5108C76.8963 48.667 77.2732 49.8521 77.5843 51.0406L81.821 53.5024ZM26.8418 38.3584C26.6991 38.2625 26.5932 38.132 26.5084 37.9871L21.7109 40.7766C23.3889 41.9306 25.0055 43.361 26.5229 45.0379L29.0817 43.6007C29.0874 43.5972 29.0935 43.5949 29.0997 43.593L29.1089 43.5904L29.1161 43.5884L29.1208 43.5869C29.1234 43.5861 29.126 43.5851 29.1285 43.584L31.3539 42.2907C29.9223 40.741 28.4105 39.412 26.8418 38.3584ZM31.5223 38.1856C31.1733 38.2603 30.8121 38.2993 30.4441 38.3216C31.0874 38.8679 31.7174 39.4532 32.3328 40.0798C32.354 39.2525 32.4209 38.452 32.5168 37.6716L31.8478 38.0596C31.7464 38.1187 31.6371 38.161 31.5223 38.1856ZM49.2027 26.9204C47.4802 26.4554 45.8725 26.2726 44.4242 26.374C43.9637 26.4053 43.5122 26.4766 43.0684 26.5669L41.2912 27.5993L43.1052 31.9241C43.3126 32.4192 43.1375 32.9922 42.6882 33.2866C42.6642 33.3022 42.6382 33.3113 42.6124 33.3205L42.6123 33.3205L42.6123 33.3205C42.5938 33.327 42.5754 33.3335 42.5578 33.3423C42.5243 33.388 42.4842 33.4293 42.4363 33.4639C41.1485 34.3803 40.1518 35.6982 39.4739 37.3772C39.4126 37.5277 39.2899 37.6437 39.1372 37.6961C38.9845 37.7485 38.8161 37.7329 38.6756 37.6504L35.158 35.6C34.3876 38.6538 34.3486 42.3108 35.061 46.2755L39.2598 48.7149C39.5196 48.8665 39.708 49.1163 39.7805 49.4073C40.115 50.7396 40.4952 51.9627 40.9434 53.1478C41.4016 54.3531 41.9613 55.6051 42.6068 56.8672C42.802 57.2485 42.7618 57.7079 42.5032 58.049L40.5387 60.6379C42.8689 64.6026 45.7164 68.1737 48.8304 71.0413L51.8908 69.2618C52.2666 69.0444 52.7348 69.0623 53.0905 69.312C53.6959 69.7357 54.2388 70.0858 54.7495 70.3801C55.6916 70.9231 56.6382 71.3713 57.5636 71.7124C57.8668 71.8239 58.1065 72.0614 58.2214 72.3636L60.2494 77.7163C61.788 78.111 63.243 78.2649 64.5686 78.1712C65.8876 78.082 67.095 77.7487 68.2546 77.1823L66.4049 72.3022C66.3157 72.067 66.3949 71.8005 66.5989 71.6534C67.8833 70.7224 68.8811 69.4034 69.5668 67.7333C69.6282 67.5839 69.7508 67.469 69.9035 67.4166C70.0563 67.3665 70.2235 67.3821 70.3629 67.4635L74.1793 69.6799L74.4535 69.5205C75.224 66.3497 75.2373 62.5623 74.4747 58.4738L70.0541 55.905C69.9236 55.8292 69.83 55.7044 69.7932 55.5572C69.4754 54.2795 69.0785 53.0007 68.6102 51.7553C68.152 50.5411 67.5834 49.2713 66.9222 47.9813C66.8241 47.7895 66.8442 47.5598 66.9746 47.3893L69.1621 44.5128C66.7338 40.3095 63.7246 36.5232 60.4233 33.5096L58.3775 36.2211C58.2871 36.3415 58.1511 36.4195 58.0017 36.4385C57.8534 36.4574 57.7018 36.4139 57.5836 36.3203C56.6003 35.5332 55.589 34.8374 54.5767 34.2532C53.6067 33.6924 52.6278 33.2297 51.6678 32.8774C51.5162 32.8217 51.3958 32.7035 51.3389 32.5518L49.2027 26.9204ZM40.3948 32.2118L35.9697 34.7839L38.6935 36.3716C39.3223 35.0247 40.164 33.9165 41.1898 33.0413L40.3948 32.2118ZM75.4503 57.8439L80.1519 55.1112L76.0602 52.7342C75.8907 52.6361 75.7692 52.4878 75.6722 52.3217L70.8891 55.1012L75.2552 57.6376C75.3399 57.6867 75.4023 57.7614 75.4503 57.8439ZM61.2796 31.5083C61.0421 31.3566 60.8091 31.2117 60.585 31.0824C59.644 30.5394 58.6941 30.0901 57.7631 29.7478C57.5178 29.6575 57.3339 29.4713 57.2045 29.2494L52.4728 31.9988C53.3569 32.35 54.25 32.7771 55.1353 33.2877C56.0406 33.8106 56.9448 34.4182 57.83 35.0961L59.9004 32.3534C59.9517 32.2854 60.0209 32.2341 60.0956 32.1962L61.2796 31.5083ZM50.7491 23.2779C49.3153 23.3749 47.9551 23.7696 46.702 24.453L45.3418 25.2446C46.7231 25.2569 48.2082 25.4776 49.7769 25.9236C49.7971 25.9297 49.8144 25.9414 49.8318 25.9531C49.8433 25.9609 49.8548 25.9687 49.8672 25.9749L54.0895 23.521C52.8998 23.2913 51.7793 23.2065 50.7491 23.2779ZM39.3234 26.1633L39.3379 26.1544L37.4537 24.6604C37.3433 24.5734 37.2541 24.4653 37.185 24.346L34.1791 26.092C34.1791 26.0942 34.1802 26.0964 34.1802 26.0987L36.4012 27.858C36.4569 27.9015 36.4993 27.9572 36.5339 28.0174L38.8964 26.645C38.99 26.4521 39.1261 26.2782 39.3234 26.1633ZM30.4296 12.2491C29.9547 11.8733 29.4742 11.5478 28.9635 11.2523C28.7929 11.1542 28.6703 11.0037 28.5744 10.8365L25.5808 12.5757C26.0591 12.8679 26.5307 13.1901 26.9801 13.5457C27.3792 13.8624 27.7973 14.2303 28.2243 14.6439L29.4318 13.7208C29.4518 13.7053 29.4745 13.6958 29.4973 13.6862C29.5075 13.6819 29.5177 13.6776 29.5277 13.6728C29.5266 13.6718 29.5256 13.6705 29.5245 13.6692L29.5243 13.6689C29.5232 13.6675 29.5221 13.6661 29.521 13.665L31.0495 12.7764C30.8332 12.5813 30.627 12.4052 30.4296 12.2491ZM27.2376 7.75704C25.9131 7.25644 24.6688 7.07471 23.5952 7.27205L21.7801 8.32677C22.653 8.51296 23.5561 8.82514 24.4748 9.27668C24.4892 9.28388 24.5005 9.29453 24.5119 9.30525C24.52 9.31281 24.528 9.3204 24.5373 9.32685L27.2376 7.75704ZM18.8545 11.6147L18.5289 10.3604L16.3849 11.9971L17.3404 12.7541C17.7741 12.2669 18.2803 11.8856 18.8545 11.6147ZM15.1797 14.5146C15.0415 15.2794 14.9913 16.1167 15.0258 17.0633L17.0249 18.651C17.2535 18.8316 17.4017 19.0958 17.4385 19.3846C17.5969 20.6288 17.9302 21.911 18.4297 23.1954C18.6103 23.6592 18.462 24.1866 18.0651 24.4876L17.1765 25.1621C18.0573 26.9984 19.1778 28.7544 20.4633 30.3153L21.45 29.7422C21.8882 29.488 22.4412 29.5616 22.798 29.9173C23.2763 30.3945 23.6765 30.7602 24.0567 31.0668C24.5239 31.4358 25.0044 31.7614 25.5173 32.0579C25.7759 32.2073 25.9644 32.4548 26.0391 32.7436L26.7114 35.3458C28.0582 35.939 29.3248 36.1742 30.4452 36.0728L29.9357 34.1027C29.8621 33.8184 30.0205 33.5263 30.2981 33.4338C31.0194 33.1918 31.6282 32.7269 32.1076 32.0512C32.1957 31.9264 32.3317 31.8439 32.4833 31.8216C32.6327 31.7982 32.7888 31.8416 32.9081 31.9364L34.3977 33.116L35.0242 32.7525C35.1614 32.3523 35.2807 31.9398 35.3598 31.5027C35.5204 30.6175 35.5717 29.6341 35.5126 28.5771L33.3095 26.8312C33.1947 26.7409 33.12 26.6082 33.1021 26.4632C32.9404 25.1699 32.5959 23.8409 32.0786 22.5119C31.9883 22.2789 32.063 22.0158 32.2615 21.8653L33.5091 20.9187C32.5224 18.7613 31.2123 16.7054 29.6927 14.9238L28.5142 15.8246C28.2912 15.9963 27.9757 15.974 27.7795 15.7745C27.2621 15.2504 26.7593 14.7944 26.2866 14.4209C25.7893 14.0274 25.2876 13.6873 24.7536 13.3785C24.6231 13.3038 24.5295 13.18 24.4916 13.0351L23.7524 10.1675C22.4925 9.57883 21.2861 9.28114 20.1768 9.25773L19.4956 9.65353L20.0553 11.8076C20.1289 12.0885 19.9728 12.3795 19.6974 12.4743C18.9671 12.7263 18.3572 13.1912 17.8834 13.859C17.7942 13.9839 17.6593 14.0675 17.5077 14.0887C17.356 14.111 17.2022 14.0675 17.0829 13.9739L15.6859 12.8667C15.4674 13.3829 15.2879 13.9215 15.1797 14.5146ZM17.825 30.6755C17.6122 30.6732 17.3994 30.6709 17.1866 30.6843L13.5508 32.7982C14.1428 32.8852 14.736 32.9978 15.3302 33.1628C16.8855 33.591 18.5356 34.3056 20.2348 35.2856L20.4243 35.396C20.4373 35.4045 20.4477 35.4156 20.458 35.4267C20.4654 35.4346 20.4728 35.4426 20.4812 35.4495L23.7323 33.5608C23.3722 33.3234 23.012 33.0826 22.6709 32.8127C22.4022 32.5964 22.1324 32.3623 21.8458 32.0958L20.7844 32.7124C20.324 32.9789 19.742 32.8852 19.3908 32.4894C18.8779 31.913 18.3929 31.3042 17.9258 30.6765L17.825 30.6755ZM10.9497 38.0384L10.2551 34.5609L5.13089 37.5389L7.71528 39.8423C8.6351 38.9772 9.71992 38.3717 10.9497 38.0384ZM35.6921 76.6081L36.3075 76.2502C37.4604 74.1831 38.0903 71.5229 38.1338 68.4446L34.333 65.0642C34.2215 64.966 34.1546 64.8278 34.1468 64.6795C34.0832 63.578 33.9472 62.5121 33.7309 61.4228C33.5135 60.328 33.2136 59.2119 32.8167 58.01C32.732 57.7569 32.8401 57.4793 33.0731 57.3489L35.5995 55.9374C34.0297 51.9604 31.8322 48.1296 29.2155 44.8049L26.679 46.2286C26.4494 46.3557 26.1606 46.3089 25.9878 46.1116C24.3801 44.2853 22.6575 42.7501 20.868 41.5493C20.7454 41.4668 20.6607 41.3397 20.6317 41.1947L19.6394 36.2277C18.0361 35.3057 16.4864 34.6356 15.0336 34.2365C13.9589 33.9388 12.9209 33.7883 11.884 33.766L11.302 34.1049L12.1493 38.3483C12.2095 38.6505 12.0144 38.9437 11.7123 39.0039C10.3075 39.2849 9.10894 39.9538 8.14676 40.9896C7.94161 41.2126 7.59376 41.2293 7.36743 41.0264L4.27797 38.2725C3.01922 40.2593 2.31459 42.9117 2.23989 46.0279L5.84333 49.2423C6.06408 49.4396 6.19676 49.715 6.2146 50.0104C6.2748 51.0562 6.41305 52.1266 6.62712 53.1947C6.83561 54.2449 7.12326 55.3219 7.50679 56.4882C7.67069 56.9888 7.4622 57.5362 7.00731 57.8004L4.90344 59.0224C6.37514 62.6392 8.37532 66.1267 10.7412 69.2028L12.8662 68.0154C13.3278 67.76 13.902 67.8593 14.2487 68.254C15.8029 70.0278 17.4843 71.5307 19.2469 72.7215C19.49 72.8865 19.6595 73.1395 19.7163 73.4272L20.6573 78.1366C22.148 78.9751 23.5807 79.5827 24.9275 79.9495C26.1349 80.2829 27.3201 80.4245 28.4629 80.3999L27.6669 76.3918C27.6078 76.0919 27.8006 75.7998 28.0994 75.7373C29.5054 75.4419 30.7039 74.7696 31.6605 73.7394C31.8679 73.5164 32.2146 73.5008 32.441 73.7026L35.6921 76.6081ZM39.0592 67.7801C39.1037 67.8203 39.1339 67.8715 39.1628 67.9217L41.7238 66.4333C40.7182 65.0887 39.7727 63.6761 38.8908 62.2122L35.2361 64.3361C35.2366 64.3435 35.2374 64.3509 35.2382 64.3585L35.2396 64.3722L35.2405 64.384L39.0592 67.7801ZM15.1599 47.4361C16.6227 46.9678 18.4155 47.2822 20.2083 48.3168C21.2318 48.9078 22.2307 49.7127 23.1784 50.7128C27.1174 54.8693 28.9593 61.2065 27.2847 64.8411C26.7228 66.0687 25.8108 66.9138 24.6468 67.2862C24.203 67.4278 23.7281 67.498 23.2319 67.498C22.0914 67.498 20.8382 67.1267 19.585 66.4032C18.5682 65.8156 17.577 65.0184 16.6372 64.0317C12.6279 59.8117 10.8172 53.5982 12.5153 49.8867C13.0794 48.6547 13.9948 47.8084 15.1599 47.4361ZM26.1497 62.2657C26.3504 62.3816 26.5488 62.4831 26.7462 62.5756C27.1375 59.2609 25.4216 54.6976 22.3679 51.4777C21.4949 50.559 20.5795 49.8198 19.6497 49.2824C19.3587 49.114 19.0699 48.9724 18.7845 48.8487C18.5582 52.2994 20.2818 56.788 23.3267 59.9923C24.251 60.9623 25.2076 61.7216 26.1497 62.2657ZM54.3226 63.8087C57.2136 65.4777 60.1035 65.723 62.1181 64.142C65.687 61.3436 65.1652 53.8702 60.972 47.4806C59.1468 44.6989 56.927 42.576 54.7072 41.295C51.8162 39.6259 48.9241 39.3829 46.905 40.9661C43.345 43.7802 43.8579 51.2267 48.06 57.6331C49.8852 60.4093 52.1039 62.5276 54.3226 63.8087ZM49.8372 49.5075L52.6937 53.0675L58.2059 49.4529L58.7689 50.2646L53.3604 57.8092L49.3868 49.8654L49.8372 49.5075ZM50.1527 87.0159C48.4123 88.3884 46.0966 88.7574 43.4553 88.0829C42.2166 87.7673 40.9467 87.2355 39.6779 86.5041C38.5329 85.843 37.3923 85.0179 36.2741 84.0468L39.203 84.0903L39.2197 82.9754L34.7923 82.9096C34.595 82.9107 34.44 82.9921 34.333 83.1393C34.226 83.2865 34.197 83.4749 34.2561 83.6466L36.399 89.9548L37.4548 89.5969L35.9764 85.2454C37.011 86.1061 38.0624 86.8587 39.1216 87.4697C40.4773 88.2523 41.8431 88.8232 43.181 89.1632C44.1354 89.4074 45.0552 89.5278 45.9304 89.5278C47.7979 89.5278 49.4659 88.9781 50.8439 87.8933C53.2332 86.0113 54.5198 82.6554 54.4641 78.4421L53.3491 78.4566C53.3993 82.3142 52.2643 85.3535 50.1527 87.0159ZM25.4683 28.0855C25.2119 27.9907 24.9577 27.8703 24.7057 27.7254C22.7713 26.6093 21.1168 24.074 20.7689 21.6958C20.5493 20.1294 20.9194 18.8316 21.7835 18.1337C22.5004 17.555 23.4748 17.4469 24.5229 17.8326C24.7804 17.9274 25.0357 18.0489 25.2877 18.1939C27.2232 19.311 28.8755 21.8452 29.2167 24.22C29.4397 25.7798 29.0729 27.0754 28.2122 27.7755C27.7751 28.1301 27.2433 28.3096 26.6568 28.3096C26.2811 28.3096 25.882 28.2349 25.4706 28.0866L25.4683 28.0855Z" fill="#020109"/>
</svg>
