<svg width="48" height="48" viewBox="0 0 48 48" fill="none" xmlns="http://www.w3.org/2000/svg">
<path d="M45.3729 31.6199C45.8284 31.0639 46.0944 30.2419 46.0944 29.3554C46.0944 28.5682 45.8872 27.8296 45.4876 27.2433C45.3289 27.0424 43.9184 25.266 43.2322 24.7596C42.2498 24.0353 39.3534 22.6122 38.4178 22.5551C37.3487 22.4883 34.0966 22.9353 33.366 23.3057C32.7592 23.6134 32.3214 24.154 32.0542 24.569C31.8088 24.3932 31.5861 24.1854 31.5285 24.017C31.2956 23.3331 31.5039 21.9962 31.6877 20.8169C31.799 20.1034 31.9047 19.4298 31.9275 18.855C32.0268 16.4015 31.6421 14.6639 30.5415 12.6306C30.0135 11.7704 29.405 11.1248 28.7811 10.7646C28.1743 10.4141 27.5155 10.4341 27.2969 10.4415C26.8448 10.4557 26.133 10.6236 25.6381 10.9575C24.9188 11.4444 24.5952 12.3269 24.5952 12.7984C24.5952 13.6998 24.868 17.1179 24.8674 17.3816C24.8623 19.1752 24.1585 20.9191 23.7583 21.7228C22.5904 21.0458 16.9768 17.8018 16.7605 17.6973L16.7685 17.6859C14.9401 16.4506 12.4005 16.6339 9.80149 18.1865C5.00765 21.0504 1.18821 27.8256 1.28754 33.2901C1.3372 36.0147 2.33616 38.0566 4.1006 39.0378L4.1103 39.0207C4.31409 39.1629 12.5015 43.9276 12.5015 43.9276C13.251 44.3631 14.0941 44.5795 15.0018 44.5795C15.8592 44.5795 16.7742 44.3825 17.7201 43.9989C18.4347 43.7849 19.1734 43.4561 19.9246 43.0074C20.2015 42.8419 20.4726 42.6552 20.7415 42.4617C21.7239 43.226 22.6595 43.9339 23.1327 44.2364C24.3714 45.0276 27.6206 46.7492 29.1355 47.2961C29.9998 47.6083 31.1974 47.8207 32.9053 47.9645C33.1953 47.9885 33.4642 47.9999 33.7165 47.9999C35.0105 47.9999 35.832 47.7093 36.4211 47.4388C37.9172 46.7521 42.489 43.8208 42.6831 43.6964C42.7122 43.6776 42.7396 43.6564 42.7647 43.633C43.1283 43.294 43.363 42.758 43.4394 42.1586C43.4663 42.0107 43.4817 41.8555 43.4817 41.6939C43.4817 41.3948 43.428 41.1185 43.3418 40.8742C43.3298 40.8348 43.3247 40.792 43.3116 40.7538L44.3499 40.1812C44.391 40.1584 44.4298 40.131 44.4635 40.0984C45.0378 39.5641 45.3814 38.6468 45.3814 37.6467C45.3814 37.0377 45.2553 36.4583 45.0218 35.9731C45.4916 35.3451 45.7713 34.4438 45.7713 33.5099C45.7713 32.8226 45.632 32.169 45.3729 31.6199ZM25.9897 16.9027C25.9714 16.603 25.7642 13.9572 25.7448 13.1432C25.8002 13.1078 25.8578 13.073 25.9286 13.0519C26.2043 12.9703 26.5405 13.053 26.9264 13.2991C27.1856 13.464 27.5081 14.2364 27.5949 15.3432C27.6731 16.3353 27.507 16.9655 27.3203 17.1305C27.193 17.2224 26.617 17.1156 25.9897 16.9027ZM4.65544 38.0417C3.26147 37.2666 2.47087 35.5718 2.4292 33.2713C2.33673 28.1715 5.90671 21.845 10.3872 19.1683C11.6641 18.4057 12.9034 18.0193 14.0017 18.0193C14.7985 18.0193 15.5218 18.2225 16.1297 18.6335C16.1497 18.6466 16.1697 18.6586 16.1914 18.6694C16.4374 18.807 19.6392 20.6565 22.2759 22.184C21.3226 22.3553 20.3151 22.744 19.283 23.3605C14.5679 26.1776 10.8107 32.8409 10.9083 38.2141C10.9392 39.9146 11.353 41.3286 12.0917 42.3704C9.29802 40.7458 4.73879 38.0908 4.65544 38.0417ZM33.0001 46.828C31.3955 46.6933 30.2903 46.5009 29.5226 46.2235C28.0989 45.7092 24.916 44.0223 23.7463 43.2751C22.5687 42.5228 18.1236 38.9248 18.0791 38.8889C18.0392 38.8563 17.9952 38.8295 17.9484 38.8089L16.8946 38.3494C15.8923 37.899 15.3237 36.7597 15.294 35.1419C15.2318 31.6998 17.6419 27.4288 20.6673 25.621C21.1405 25.3385 21.6074 25.1301 22.0555 25.0022C22.0584 25.0017 22.0607 25.0011 22.0635 25L22.2433 24.9446C23.0316 24.6489 23.8017 23.8908 24.5284 22.6955C24.5432 22.6721 25.9543 20.2678 26.0045 17.5124C26.3693 17.6277 26.7774 17.7264 27.1199 17.7264C27.3568 17.7264 27.5618 17.6796 27.6971 17.5597C28.2416 17.0785 28.2051 15.8181 28.164 15.2992C28.0915 14.3819 27.8044 13.182 27.233 12.8184C26.7244 12.4948 26.2511 12.3903 25.8242 12.4965C25.9058 12.2995 26.0491 12.0592 26.2774 11.9045C26.5822 11.699 27.088 11.5917 27.3334 11.5837C27.3665 11.5826 27.4008 11.582 27.4373 11.582C27.6651 11.582 27.9585 11.6094 28.2102 11.755C28.4728 11.9062 28.998 12.2995 29.5528 13.202C30.5432 15.0332 30.8777 16.5534 30.787 18.8104C30.7664 19.3196 30.6659 19.9624 30.5603 20.6422C30.3457 22.0157 30.1242 23.4365 30.4485 24.3869C30.7327 25.2197 31.8076 25.774 32.02 25.8762C32.028 25.8802 32.0371 25.879 32.0451 25.8825C32.0451 25.8825 33.652 26.6896 34.3273 26.9596C34.3273 26.9596 36.739 27.9323 37.7591 27.9323C37.8219 27.9323 37.8847 27.9306 37.9452 27.926C38.4823 27.8884 39.4082 27.5853 39.6343 27.1954C39.7079 27.0687 39.7165 26.9265 39.6571 26.8044C39.398 26.2655 38.4167 25.875 37.5593 25.7266C37.1751 25.6598 36.1145 25.7084 34.3158 25.8733C33.7758 25.9236 33.3957 25.8402 33.2176 25.6336C33.0246 25.4087 33.1051 25.0707 33.1057 25.0696L33.0994 25.0679C33.2969 24.7876 33.5663 24.4839 33.882 24.3241C34.2981 24.1129 37.2887 23.6334 38.3482 23.6945C38.903 23.7281 41.5517 24.9395 42.5535 25.6781C42.9776 25.9909 44.028 27.2376 44.5663 27.9175C44.7307 28.1589 44.8426 28.4775 44.9025 28.8251C44.8146 29.4456 44.7067 30.0689 44.5783 30.6951L37.952 34.7069L38.2477 35.195L44.1067 31.6479C44.1233 31.7032 44.2432 31.9384 44.2791 32.0046C44.2323 32.1924 44.1918 32.3797 44.141 32.5675C43.8396 33.6834 43.4794 34.7612 43.0724 35.8007L37.6432 38.8523L37.9229 39.3501L42.7219 36.6523C42.1014 38.1068 41.3833 39.4751 40.5824 40.7463L35.7161 43.3333L35.9838 43.8374L39.9248 41.7419C38.6439 43.5919 37.186 45.2068 35.6082 46.5403C35.0277 46.7629 34.2485 46.9324 33.0001 46.828Z" fill="#18181B"/>
<path d="M19.6695 6.94178L19.9572 9.06585C19.9686 9.15033 20.0166 9.22454 20.0879 9.26964C20.1593 9.31473 20.2478 9.32443 20.3282 9.29875L21.5932 8.88432L23.2389 10.1099C23.2897 10.1476 23.3496 10.1664 23.4096 10.1664C23.4655 10.1664 23.5215 10.1499 23.5694 10.1173C23.6705 10.0494 23.7167 9.92495 23.6853 9.80736L23.1042 7.64048L23.8389 6.35782C23.8771 6.29047 23.8868 6.21112 23.8657 6.13691C23.844 6.0627 23.7938 6.00048 23.7253 5.96395L22.015 5.05519L20.7809 2.95624C20.7233 2.85806 20.6142 2.80383 20.4995 2.81753C20.387 2.8318 20.2928 2.91171 20.2609 3.02131L19.8276 4.5129L18.4565 4.55228C18.3503 4.55514 18.2544 4.61736 18.2076 4.71326C18.1614 4.80859 18.1722 4.92218 18.2356 5.00781L19.6695 6.94178ZM20.0525 5.07745C20.1764 5.07402 20.2837 4.99068 20.3185 4.87195L20.6251 3.81591L21.5647 5.41367C21.5915 5.45933 21.6297 5.49644 21.6765 5.52098L23.1978 6.32985L22.5511 7.45896C22.514 7.5246 22.5031 7.60167 22.5225 7.67473L22.921 9.16232L21.8153 8.33918C21.765 8.30208 21.7057 8.28267 21.6446 8.28267C21.6149 8.28267 21.5852 8.28723 21.5561 8.29694L20.4761 8.65028L20.2249 6.79337C20.2186 6.74599 20.2004 6.70032 20.1713 6.66151L19.0193 5.1077L20.0525 5.07745Z" fill="#18181B"/>
<path d="M26.2939 3.93055L26.0947 6.25269C26.0878 6.32804 26.1118 6.40339 26.1609 6.46105C26.21 6.5187 26.2796 6.55523 26.3555 6.56094L28.2724 6.72078L30.2184 8.80831C30.2737 8.86767 30.3496 8.89907 30.4273 8.89907C30.4655 8.89907 30.5049 8.89108 30.5414 8.87509C30.6522 8.82714 30.7201 8.71355 30.7121 8.59253L30.5312 6.11512L31.8578 5.139C31.9286 5.08706 31.9714 5.00543 31.9742 4.91809C31.9771 4.83075 31.9388 4.74684 31.8721 4.69033L29.7822 2.93959L28.6885 0.180759C28.6503 0.084289 28.5629 0.0163601 28.4602 0.00266017C28.354 -0.0116106 28.2553 0.0323434 28.1936 0.115114L27.1827 1.47655L25.2287 0.856624C25.1191 0.822374 24.9981 0.856624 24.9233 0.945674C24.8491 1.03415 24.836 1.15916 24.8896 1.26191L26.2939 3.93055ZM27.2044 2.08334C27.3197 2.11873 27.4475 2.07877 27.52 1.98173L28.3472 0.868041L29.2788 3.21758C29.2959 3.26211 29.3244 3.30092 29.3604 3.33118L31.2276 4.89526L30.0665 5.74922C29.9872 5.80745 29.9438 5.9022 29.9506 5.99982L30.0842 7.82705L28.6155 6.25098C28.5669 6.19904 28.5007 6.16707 28.4299 6.16136L26.6883 6.01637L26.8699 3.89573C26.8744 3.8415 26.8636 3.7867 26.8379 3.73875L25.7191 1.61183L27.2044 2.08334Z" fill="#18181B"/>
<path d="M33.9147 12.5091L33.3319 13.9801C33.2742 14.1257 33.3439 14.2901 33.4888 14.3494L35.1745 15.0407L36.524 17.0478C36.5782 17.1277 36.6672 17.1739 36.7609 17.1739C36.7808 17.1739 36.8008 17.1716 36.8214 17.1676C36.9355 17.1425 37.0234 17.0506 37.0428 16.9359L37.3186 15.285L38.6075 15.0396C38.7068 15.0207 38.789 14.9499 38.8233 14.8546C38.8569 14.7593 38.8375 14.6525 38.7719 14.5755L37.2443 12.7642L36.7797 10.5791C36.7609 10.4912 36.7015 10.417 36.6204 10.3793C36.5377 10.3416 36.4429 10.3445 36.3653 10.3873L35.2276 11.0021L33.5876 9.98029C33.4854 9.91635 33.3536 9.92378 33.2594 9.99913C33.1646 10.0739 33.1281 10.2006 33.1663 10.3148L33.9147 12.5091ZM35.0655 11.574C35.1534 11.6283 35.2624 11.6317 35.352 11.5832L36.3002 11.0711L36.7003 12.9532C36.7106 12.9994 36.7312 13.0417 36.7614 13.0776L38.0201 14.5709L37.0154 14.7621C36.8984 14.7844 36.8071 14.8774 36.7877 14.9956L36.597 16.1356L35.5992 14.6514C35.5672 14.604 35.5227 14.5681 35.4702 14.5464L33.9649 13.9287L34.4832 12.6221C34.5084 12.5593 34.5101 12.4891 34.4884 12.4246L33.9649 10.8879L35.0655 11.574Z" fill="#18181B"/>
</svg>
