<svg width="58" height="58" viewBox="0 0 58 58" fill="none" xmlns="http://www.w3.org/2000/svg">
<path d="M1 29C1 13.536 13.536 1 29 1C44.464 1 57 13.536 57 29C57 44.464 44.464 57 29 57C13.536 57 1 44.464 1 29Z" fill="#F4F4F5"/>
<path d="M29 0.5C44.7401 0.5 57.5 13.2599 57.5 29C57.5 44.7401 44.7401 57.5 29 57.5C13.2599 57.5 0.5 44.7401 0.5 29C0.5 13.2599 13.2599 0.5 29 0.5Z" stroke="white" stroke-opacity="0.9"/>
<path d="M33 35L39 29L33 23M25 23L19 29L25 35" stroke="#18181B" stroke-width="1.33" stroke-linecap="round" stroke-linejoin="round"/>
</svg>
