<svg width="58" height="58" viewBox="0 0 58 58" fill="none" xmlns="http://www.w3.org/2000/svg">
<path d="M1 29C1 13.536 13.536 1 29 1C44.464 1 57 13.536 57 29C57 44.464 44.464 57 29 57C13.536 57 1 44.464 1 29Z" fill="#F4F4F5"/>
<path d="M29 0.5C44.7401 0.5 57.5 13.2599 57.5 29C57.5 44.7401 44.7401 57.5 29 57.5C13.2599 57.5 0.5 44.7401 0.5 29C0.5 13.2599 13.2599 0.5 29 0.5Z" stroke="white" stroke-opacity="0.9"/>
<path d="M33 38V36C33 34.9391 32.5786 33.9217 31.8284 33.1716C31.0783 32.4214 30.0609 32 29 32H23C21.9391 32 20.9217 32.4214 20.1716 33.1716C19.4214 33.9217 19 34.9391 19 36V38M39 37.9999V35.9999C38.9993 35.1136 38.7044 34.2527 38.1614 33.5522C37.6184 32.8517 36.8581 32.3515 36 32.1299M33 20.1299C33.8604 20.3502 34.623 20.8506 35.1676 21.5522C35.7122 22.2538 36.0078 23.1167 36.0078 24.0049C36.0078 24.8931 35.7122 25.756 35.1676 26.4576C34.623 27.1592 33.8604 27.6596 33 27.8799M30 24C30 26.2091 28.2091 28 26 28C23.7909 28 22 26.2091 22 24C22 21.7909 23.7909 20 26 20C28.2091 20 30 21.7909 30 24Z" stroke="#18181B" stroke-width="1.33" stroke-linecap="round" stroke-linejoin="round"/>
</svg>
