<svg width="48" height="48" viewBox="0 0 48 48" fill="none" xmlns="http://www.w3.org/2000/svg">
<path d="M27.4676 17.1047L27.2012 17.5669L32.9356 20.8723L33.202 20.4101L27.4676 17.1047Z" fill="#18181B"/>
<path d="M27.4573 20.0603L27.1909 20.5225L33.0044 23.8727L33.2707 23.4105L27.4573 20.0603Z" fill="#18181B"/>
<path d="M27.4676 25.8694L27.2012 26.3315L32.9356 29.6369L33.202 29.1747L27.4676 25.8694Z" fill="#18181B"/>
<path d="M27.4563 28.822L27.1899 29.2842L33.0034 32.6344L33.2697 32.1723L27.4563 28.822Z" fill="#18181B"/>
<path d="M28.6028 43.1301C23.0926 39.928 9.59226 32.0825 9.52985 32.0473C9.33996 31.9465 8.94469 31.7368 8.36113 31.7368C8.3558 31.7368 8.351 31.7368 8.34566 31.7368C7.7765 31.7406 7.34924 31.9502 7.14547 32.075C6.40668 32.5257 5.98902 33.2784 6.00022 34.1628C6.00929 34.3383 6.03329 34.8034 6.31227 35.2792C6.5283 35.6457 6.79075 35.9108 7.17321 36.1439L7.52793 36.3498L7.3199 36.7083C7.154 36.9937 7.12307 37.3324 7.23135 37.6631C7.3359 37.9826 7.55994 38.2547 7.86238 38.4302L13.9882 41.9865L14.2559 41.5251L8.13016 37.9693C7.94133 37.8599 7.80211 37.6919 7.73863 37.4972C7.67836 37.3137 7.69329 37.1291 7.78184 36.9771L7.98987 36.6187L26.2275 47.2161C26.34 47.2817 26.4371 47.3383 31.2901 47.9954C31.3141 47.9986 31.3381 48.0002 31.3616 48.0002C31.5504 48.0002 31.727 47.9005 31.8225 47.7346C31.9313 47.5474 31.9164 47.3137 31.7852 47.1425C28.8039 43.2464 28.7057 43.1899 28.6028 43.1301ZM7.23188 34.7384C7.08519 34.4877 7.07079 34.2209 7.06546 34.1271C7.05959 33.6443 7.28523 33.2384 7.70076 32.985C7.81011 32.9178 8.04108 32.8058 8.35206 32.8037C8.68065 32.7855 8.88015 32.9103 9.01297 32.9802C9.05618 33.0053 12.0535 34.7469 15.8013 36.9249C15.095 37.3948 14.5573 38.3277 14.4997 39.1668L7.71836 35.2259C7.49486 35.0904 7.3583 34.9528 7.23188 34.7384ZM15.0347 39.4778C15.0289 39.4335 15.0225 39.3898 15.0214 39.3407C15.0086 38.6227 15.5308 37.6978 16.1629 37.3206C16.2221 37.2854 16.2792 37.2582 16.3357 37.2353C20.3636 39.5765 25.1147 42.3374 27.9995 44.0134C28.2112 44.2615 29.0583 45.3491 29.907 46.4496L26.6873 46.2495L15.0347 39.4778Z" fill="#18181B"/>
<path d="M21.3306 18.6484L25.8534 21.2488L25.8652 15.5428L21.3423 12.9419L21.3306 18.6484ZM22.526 16.0619L23.2898 16.9457L24.9909 15.7178L25.3664 16.2614L23.3746 19.0181L22.0747 16.4203L22.526 16.0619Z" fill="#18181B"/>
<path d="M21.3306 27.4125L25.8534 30.0129L25.8652 24.307L21.3423 21.7065L21.3306 27.4125ZM22.526 24.826L23.2898 25.7099L24.9909 24.4819L25.3664 25.0255L23.3746 27.7822L22.0747 25.1844L22.526 24.826Z" fill="#18181B"/>
<path d="M41.035 13.3171L30.7337 7.38765L30.7347 6.65313C30.7358 6.22266 30.4654 5.75379 30.0914 5.53722L24.6314 2.38578C24.3641 2.23109 24.0729 2.22096 23.8318 2.35911C23.5917 2.49673 23.4536 2.75278 23.452 3.06323V3.19711L18.0218 0.0712793C17.8564 -0.0242027 17.6526 -0.0236691 17.4873 0.0723463L15.6561 1.13652C15.4923 1.23147 15.3915 1.40643 15.3909 1.59632L15.3237 30.729C15.3232 30.9205 15.4251 31.097 15.591 31.1925L16.477 31.7025C16.4007 31.759 16.3244 31.8182 16.2455 31.8636C16.0807 31.9585 15.9793 32.1345 15.9788 32.325C15.9782 32.5149 16.0796 32.6914 16.2439 32.7869L34.0723 43.1566C34.155 43.2046 34.2478 43.2291 34.3406 43.2291C34.4329 43.2291 34.5247 43.2057 34.6074 43.1576C34.8735 43.004 35.1232 42.7997 35.3584 42.5709L38.6037 44.4389C38.6859 44.4864 38.7782 44.5099 38.8699 44.5099C38.9627 44.5099 39.055 44.4859 39.1377 44.4379L40.9689 43.3737C41.1332 43.2782 41.234 43.1032 41.2345 42.9139L41.3023 13.7812C41.3028 13.5892 41.2004 13.4126 41.035 13.3171ZM24.2484 5.78206C24.4132 5.68711 24.5151 5.51108 24.5156 5.32065L24.5183 3.55184L29.5569 6.4611C29.6012 6.48884 29.6652 6.59926 29.6674 6.65153L29.6642 8.9079C29.6636 9.09886 29.7655 9.27489 29.9309 9.3709L31.2452 10.13C31.497 10.2745 31.7333 10.6858 31.7322 10.9754L31.7253 13.7615L22.9223 8.67906C22.671 8.5345 22.4347 8.12537 22.4358 7.83732L22.4422 5.04701L23.7155 5.78206C23.8803 5.87754 24.0841 5.87754 24.2484 5.78206ZM17.7561 1.14932L22.7046 3.99778C22.4097 3.89269 22.1131 3.90496 21.8666 4.04632C21.6933 4.14607 21.5663 4.30129 21.4831 4.48959L16.7234 1.74995L17.7561 1.14932ZM16.4562 2.21136L21.3754 5.04274L21.3722 6.54912L18.7131 5.00274C18.5477 4.90672 18.3445 4.90619 18.1781 5.00167C18.0127 5.09715 17.9108 5.27371 17.9113 5.46521L17.9679 28.8823C17.97 29.5357 17.6772 30.2937 17.2392 30.9109L16.3906 30.4223L16.4562 2.21136ZM34.323 42.0679L17.4729 32.2668C18.3914 31.4064 19.039 30.0585 19.0353 28.8786L18.9803 6.39176L21.3695 7.78131V7.83412C21.3674 8.5057 21.8058 9.26635 22.3894 9.60294L31.234 14.7094C31.4351 14.8251 31.6421 14.8838 31.8394 14.8838C32.0043 14.8838 32.1616 14.8432 32.303 14.7616C32.4651 14.6683 32.5889 14.5275 32.6726 14.3557L35.7403 16.14L35.7963 39.2514C35.7995 40.2302 35.1466 41.4491 34.323 42.0679ZM38.6571 43.2377L36.0438 41.7334C36.5453 40.9696 36.8658 40.0708 36.8637 39.2482L36.8072 15.8311C36.8066 15.6418 36.7058 15.4663 36.5421 15.3713L32.7943 13.1918L32.798 11.6166L38.6715 14.9974L38.6571 43.2377ZM40.2349 14.0901L39.1681 14.7099C39.1451 14.6699 39.1121 14.6363 39.0705 14.6128L32.7991 11.0026V10.9781C32.8012 10.3583 32.4283 9.66855 31.9147 9.29836L40.2349 14.0874V14.0901Z" fill="#18181B"/>
</svg>
