<svg width="48" height="48" viewBox="0 0 48 48" fill="none" xmlns="http://www.w3.org/2000/svg">
<path d="M24.4636 2.27539C15.7846 2.27539 8.72314 9.14729 8.72314 17.5948C8.72314 19.1502 8.96155 20.6846 9.45358 22.212C9.91454 23.2867 10.7134 24.4058 11.6385 25.7012C13.1381 27.8012 15.0047 30.4148 16.004 33.7981C16.276 34.72 16.7452 35.4727 17.4338 36.0902L17.4173 41.888C17.4135 43.0813 18.1585 44.1852 19.5148 44.9962C20.0842 45.3367 20.7429 45.6119 21.4753 45.8154L21.8196 46.1869C21.9641 46.3429 22.1417 46.4843 22.3471 46.6067C22.9101 46.9434 23.6418 47.112 24.3742 47.112C25.0723 47.112 25.7704 46.958 26.3214 46.6492C26.5503 46.5205 26.7468 46.3702 26.9047 46.2009L27.2534 45.8287C27.9376 45.6423 28.5551 45.3956 29.0916 45.0945C30.5328 44.286 31.3279 43.1606 31.3317 41.9261L31.3475 36.1327C32.0932 35.4765 32.5935 34.6782 32.8008 33.8083C33.5509 30.6608 35.4549 28.1024 37.1346 25.8445C38.1459 24.4851 39.0196 23.3115 39.4837 22.2069C39.5053 22.1562 39.5192 22.1036 39.5262 22.0503C39.9751 20.611 40.2028 19.1127 40.2028 17.5942C40.2034 9.14729 33.1425 2.27539 24.4636 2.27539ZM28.5482 37.1491C28.5482 37.2239 28.5501 37.3007 28.5501 37.3007V39.1825C26.1381 40.4912 22.3363 40.4443 20.0208 39.0595C19.4159 38.6975 18.9708 38.2739 18.6987 37.8193L18.7032 36.2773L19.7012 36.8651C20.989 37.6348 22.7047 38.0222 24.4205 38.0222C25.8908 38.0222 27.3473 37.7217 28.5482 37.1491ZM18.6949 38.8287C18.9727 39.1077 19.303 39.3702 19.6948 39.6042C20.9807 40.3727 22.6939 40.7594 24.4072 40.7594C25.8845 40.7594 27.3473 40.4557 28.5494 39.8787V41.9876C26.1369 43.2988 22.3319 43.2525 20.0157 41.8671C19.4083 41.5038 18.9619 41.0784 18.6899 40.6212L18.6949 38.8287ZM12.6708 24.9638C11.7882 23.728 11.026 22.6603 10.6405 21.7682C10.2094 20.4221 9.99126 19.0176 9.99126 17.5942C9.99126 9.84665 16.4834 3.54287 24.4636 3.54287C27.5052 3.54287 30.3286 4.46098 32.6607 6.0233C34.2984 8.43334 35.3953 11.2435 35.7415 14.3193C35.9603 16.2639 35.8671 18.1737 35.5012 20.0017L35.5139 20.0004C34.4145 23.7414 29.4466 29.1042 28.6109 35.9254C28.5888 36.1074 28.5507 36.2906 28.5038 36.4738C26.0842 37.7502 22.3255 37.695 20.0246 36.3198L18.9467 35.6851C18.8205 35.6096 18.7019 35.5316 18.5872 35.4524C18.551 35.3985 18.518 35.3414 18.4654 35.3002C17.8548 34.8139 17.4478 34.2046 17.2214 33.438C16.1606 29.8511 14.2255 27.1412 12.6708 24.9638ZM18.6861 41.8912L18.6867 41.6319C18.9657 41.9128 19.2973 42.1759 19.6904 42.4111C20.9763 43.1796 22.6901 43.5664 24.4027 43.5664C25.882 43.5664 27.3466 43.2627 28.5494 42.6832V43.9418C28.5228 43.957 28.4994 43.9735 28.4727 43.9893C28.0657 44.2176 27.5844 44.4002 27.0626 44.553C25.4641 45.0057 23.6038 45.0418 21.9781 44.6379L21.9755 44.6367C21.9717 44.636 21.9686 44.6348 21.9654 44.6335C21.7023 44.5676 21.4525 44.4807 21.2045 44.3926C20.8266 44.2531 20.4766 44.0927 20.1666 43.9075C19.2098 43.335 18.6842 42.6197 18.6861 41.8912Z" fill="#18181B"/>
<path d="M40.6887 31.4642L40.1396 31.7812L42.8074 36.4019L43.3565 36.0848L40.6887 31.4642Z" fill="#18181B"/>
<path d="M44.2208 25.2902L43.9038 25.8394L47.6831 28.0207L48.0001 27.4716L44.2208 25.2902Z" fill="#18181B"/>
<path d="M45.1763 14.7274L42.4907 16.2568L42.8045 16.8078L45.4901 15.2784L45.1763 14.7274Z" fill="#18181B"/>
<path d="M6.32568 20.8324L3.64014 22.3618L3.95393 22.9128L6.63948 21.3834L6.32568 20.8324Z" fill="#18181B"/>
<path d="M0.317028 9.8845L0 10.4336L3.7794 12.6157L4.09643 12.0666L0.317028 9.8845Z" fill="#18181B"/>
<path d="M5.1932 1.49993L4.64404 1.81689L7.3113 6.43804L7.86046 6.12108L5.1932 1.49993Z" fill="#18181B"/>
<path d="M21.8646 27.3906C22.9254 28.0024 23.9728 28.3106 24.9309 28.3106C25.7286 28.3106 26.4634 28.0969 27.0899 27.667L29.252 26.4331C30.6032 25.6482 31.3501 24.0573 31.3564 21.9548C31.3685 17.8632 28.4816 12.8624 24.9214 10.8068C23.0655 9.73527 21.2895 9.58373 19.9187 10.3814C19.9187 10.3814 17.6209 11.718 17.5511 11.7579L17.5499 11.7585C16.1892 12.5422 15.4366 14.1369 15.4302 16.2477C15.4182 20.3367 18.305 25.335 21.8646 27.3906ZM19.4711 12.2138C20.2592 12.2138 21.1424 12.4826 22.0637 13.0152C25.3608 14.9187 28.034 19.5492 28.0232 23.3364C28.02 24.4473 27.7848 25.3749 27.3467 26.0609L26.4381 26.5796C26.4279 26.5853 26.4076 26.5986 26.3892 26.6107C25.4293 27.2809 24.0115 27.1655 22.4999 26.293C19.291 24.4403 16.6888 19.936 16.699 16.2521C16.7034 14.6124 17.2309 13.4071 18.1833 12.858L18.1586 12.8155C18.4103 12.7027 18.7634 12.5112 19.2624 12.2265C19.3309 12.2214 19.3994 12.2138 19.4711 12.2138ZM24.2873 11.905C26.0849 12.943 27.6916 14.8141 28.7562 16.9071L27.1818 17.8163C26.0304 15.5768 24.3076 13.5789 22.3807 12.4661C21.6452 12.042 20.9275 11.7782 20.2452 11.6584C20.3467 11.5994 20.4469 11.5411 20.5566 11.4777C21.5172 10.9178 22.843 11.07 24.2873 11.905Z" fill="#18181B"/>
<path d="M25.5735 18.3419L24.8063 17.2349L21.719 19.2588L20.1073 17.2501L19.1841 17.9837L21.9156 23.4448L25.5735 18.3419Z" fill="#18181B"/>
</svg>
