<svg width="58" height="58" viewBox="0 0 58 58" fill="none" xmlns="http://www.w3.org/2000/svg">
<path d="M1 29C1 13.536 13.536 1 29 1C44.464 1 57 13.536 57 29C57 44.464 44.464 57 29 57C13.536 57 1 44.464 1 29Z" fill="#F4F4F5"/>
<path d="M29 0.5C44.7401 0.5 57.5 13.2599 57.5 29C57.5 44.7401 44.7401 57.5 29 57.5C13.2599 57.5 0.5 44.7401 0.5 29C0.5 13.2599 13.2599 0.5 29 0.5Z" stroke="white" stroke-opacity="0.9"/>
<path d="M21 31C20.8108 31.0007 20.6252 30.9476 20.4649 30.847C20.3047 30.7464 20.1762 30.6024 20.0945 30.4317C20.0129 30.261 19.9813 30.0706 20.0035 29.8827C20.0257 29.6948 20.1008 29.517 20.22 29.37L30.12 19.17C30.1943 19.0843 30.2955 19.0264 30.407 19.0058C30.5185 18.9852 30.6337 19.0031 30.7337 19.0565C30.8337 19.11 30.9126 19.1959 30.9573 19.3001C31.0021 19.4044 31.0101 19.5207 30.98 19.63L29.06 25.65C29.0034 25.8016 28.9844 25.9646 29.0046 26.125C29.0248 26.2855 29.0837 26.4387 29.1761 26.5715C29.2685 26.7042 29.3918 26.8126 29.5353 26.8872C29.6788 26.9618 29.8382 27.0006 30 27H37C37.1892 26.9994 37.3748 27.0525 37.535 27.1531C37.6953 27.2537 37.8238 27.3977 37.9054 27.5684C37.9871 27.7391 38.0187 27.9295 37.9965 28.1174C37.9743 28.3053 37.8992 28.4831 37.78 28.63L27.88 38.83C27.8057 38.9158 27.7045 38.9737 27.593 38.9943C27.4815 39.0149 27.3663 38.997 27.2663 38.9435C27.1663 38.89 27.0874 38.8041 27.0427 38.6999C26.9979 38.5957 26.9899 38.4794 27.02 38.37L28.94 32.35C28.9966 32.1985 29.0156 32.0355 28.9954 31.875C28.9752 31.7145 28.9163 31.5614 28.8239 31.4286C28.7315 31.2959 28.6082 31.1875 28.4647 31.1129C28.3212 31.0382 28.1617 30.9995 28 31H21Z" stroke="#18181B" stroke-width="1.33" stroke-linecap="round" stroke-linejoin="round"/>
</svg>
