<svg width="58" height="58" viewBox="0 0 58 58" fill="none" xmlns="http://www.w3.org/2000/svg">
<path d="M1 29C1 13.536 13.536 1 29 1C44.464 1 57 13.536 57 29C57 44.464 44.464 57 29 57C13.536 57 1 44.464 1 29Z" fill="#F4F4F5"/>
<path d="M29 0.5C44.7401 0.5 57.5 13.2599 57.5 29C57.5 44.7401 44.7401 57.5 29 57.5C13.2599 57.5 0.5 44.7401 0.5 29C0.5 13.2599 13.2599 0.5 29 0.5Z" stroke="white" stroke-opacity="0.9"/>
<path d="M31 19V23C31 23.5304 31.2107 24.0391 31.5858 24.4142C31.9609 24.7893 32.4696 25 33 25H37M27 26H25M33 30H25M33 34H25M32 19H23C22.4696 19 21.9609 19.2107 21.5858 19.5858C21.2107 19.9609 21 20.4696 21 21V37C21 37.5304 21.2107 38.0391 21.5858 38.4142C21.9609 38.7893 22.4696 39 23 39H35C35.5304 39 36.0391 38.7893 36.4142 38.4142C36.7893 38.0391 37 37.5304 37 37V24L32 19Z" stroke="#18181B" stroke-width="1.33" stroke-linecap="round" stroke-linejoin="round"/>
</svg>
