<svg width="60" height="60" viewBox="0 0 60 60" fill="none" xmlns="http://www.w3.org/2000/svg">
<path fill-rule="evenodd" clip-rule="evenodd" d="M1.25762 6.30011C0 8.76832 0 11.9994 0 18.4615V41.5385C0 48.0006 0 51.2317 1.25762 53.6999C2.36385 55.871 4.12901 57.6362 6.30011 58.7424C8.76832 60 11.9994 60 18.4615 60H41.5385C48.0006 60 51.2317 60 53.6999 58.7424C55.871 57.6362 57.6361 55.871 58.7424 53.6999C60 51.2317 60 48.0006 60 41.5385V18.4615C60 11.9994 60 8.76832 58.7424 6.30011C57.6361 4.12901 55.871 2.36385 53.6999 1.25762C51.2317 0 48.0006 0 41.5385 0H24.3L24.3 18.7071C25.0339 17.5961 25.9113 16.6964 26.932 16.008C28.5373 14.888 30.4413 14.328 32.644 14.328C36.004 14.328 38.6173 15.3733 40.484 17.464C42.3506 19.5173 43.284 22.6907 43.284 26.984V43H37.012V28.664C37.012 26.424 36.7506 24.7067 36.228 23.512C35.7053 22.28 34.9773 21.4213 34.044 20.936C33.148 20.4507 32.1026 20.208 30.908 20.208C28.78 20.1707 27.1373 20.8613 25.98 22.28C24.86 23.6987 24.3 25.7333 24.3 28.384V43H18.028V1.45521e-05C11.8536 0.000643379 8.71249 0.0284452 6.30011 1.25762C4.12901 2.36385 2.36385 4.12901 1.25762 6.30011ZM17.8 48H43.4V52.5H17.8V48Z" fill="#18181B"/>
</svg>
