<svg width="59" height="58" viewBox="0 0 59 58" fill="none" xmlns="http://www.w3.org/2000/svg">
<path d="M1.33301 29C1.33301 13.536 13.869 1 29.333 1C44.797 1 57.333 13.536 57.333 29C57.333 44.464 44.797 57 29.333 57C13.869 57 1.33301 44.464 1.33301 29Z" fill="#F4F4F5"/>
<path d="M29.333 0.5C45.0731 0.5 57.833 13.2599 57.833 29C57.833 44.7401 45.0731 57.5 29.333 57.5C13.5929 57.5 0.833008 44.7401 0.833008 29C0.833008 13.2599 13.5929 0.5 29.333 0.5Z" stroke="white" stroke-opacity="0.9"/>
<path d="M32.333 19V21M32.333 37V39M19.333 32H21.333M19.333 26H21.333M37.333 32H39.333M37.333 26H39.333M26.333 19V21M26.333 37V39M23.333 21H35.333C36.4376 21 37.333 21.8954 37.333 23V35C37.333 36.1046 36.4376 37 35.333 37H23.333C22.2284 37 21.333 36.1046 21.333 35V23C21.333 21.8954 22.2284 21 23.333 21ZM27.333 26H31.333C31.8853 26 32.333 26.4477 32.333 27V31C32.333 31.5523 31.8853 32 31.333 32H27.333C26.7807 32 26.333 31.5523 26.333 31V27C26.333 26.4477 26.7807 26 27.333 26Z" stroke="#18181B" stroke-width="1.33" stroke-linecap="round" stroke-linejoin="round"/>
</svg>
