<svg width="92" height="91" viewBox="0 0 92 91" fill="none" xmlns="http://www.w3.org/2000/svg">
<g clip-path="url(#clip0_656_14908)">
<path d="M21.0572 13.6127C21.2095 14.0228 21.5806 14.2807 22.0493 14.2611L34.9083 13.5619L48.9043 28.5499C49.2129 28.8819 49.709 28.964 50.1074 28.7491L61.9124 22.421L66.2796 30.2843C66.3578 30.425 66.475 30.5343 66.6078 30.6203L66.6039 30.6945L66.6742 30.6554C66.7445 30.6945 66.8109 30.7414 66.889 30.7648C66.9789 30.7882 67.0648 30.8 67.1546 30.8C67.3304 30.8 67.5023 30.7531 67.6585 30.6632L73.1858 27.4523C73.4788 27.2844 73.6663 26.9797 73.6819 26.6398L74.596 9.79984C74.6155 9.44437 74.4397 9.10843 74.1429 8.91703L74.1468 8.85063L74.096 8.88188L58.987 0.159182C58.6784 -0.0205086 58.2956 -0.0205086 57.9831 0.159182L52.4558 3.37008C51.9831 3.64352 51.8191 4.24508 52.0847 4.72168L56.5574 12.7764L54.0301 14.1319L41.2571 0.455881C41.0579 0.241041 40.7844 0.127751 40.4719 0.139471L24.4679 1.01056C24.3117 1.01837 24.1554 1.06524 24.0226 1.14337L18.4953 4.35427C18.0735 4.60036 17.8899 5.11208 18.0617 5.56907L21.0572 13.6127ZM58.4872 2.18269L72.1002 10.0421L68.069 12.3859L54.456 4.52649L58.4872 2.18269ZM39.7212 2.18269L40.1118 2.16316L52.9278 15.8861L48.7364 18.3236L35.7914 4.46866L39.5922 2.25776L39.7212 2.18269ZM24.8192 2.99519L37.5301 2.30378L34.8543 3.85458L22.1433 4.54599L24.8192 2.99519ZM20.241 5.65539L34.7921 4.86242L48.276 19.2964C48.3737 19.4019 48.5065 19.4566 48.6393 19.4566C48.7253 19.4566 48.8112 19.4331 48.8893 19.3902L58.3893 14.066C58.6237 13.9371 58.7995 13.7222 58.8737 13.4683C58.9479 13.2105 58.9206 12.9331 58.7878 12.6988L55.1042 6.06598L67.5452 13.2496L66.803 27.1016L63.1858 20.5899C63.0022 20.2618 62.6623 20.0743 62.3108 20.0743C62.1506 20.0743 61.9905 20.1133 61.8381 20.1914L49.8461 26.6211L36.0531 11.8551C35.8539 11.6403 35.5805 11.527 35.268 11.5387L22.674 12.2223L20.2287 5.65983L20.241 5.65539Z" fill="#020109"/>
<path d="M86.4281 66.6826L73.1471 59.0146L73.2018 39.2686C73.2018 38.9131 73.0143 38.5811 72.7057 38.4014V38.3975H72.7018L64.8112 33.8428C64.5026 33.6631 64.1198 33.6631 63.8073 33.8428L56.9011 37.8584C56.5925 38.0381 56.405 38.3662 56.405 38.7217V38.9717L50.8816 35.7842C50.573 35.6045 50.1902 35.6045 49.8777 35.7842L45.3425 38.4209L45.366 30.1904C45.366 29.831 45.1785 29.5029 44.8699 29.3232V29.3193L44.866 29.3232L36.9793 24.7685C36.6668 24.5888 36.2879 24.5888 35.9754 24.7685L31.3973 27.4287C31.3191 27.2061 31.1707 27.0107 30.9598 26.8896V26.8818L30.9559 26.8857L23.0692 22.331C22.7567 22.1514 22.3738 22.1514 22.0653 22.331L15.1591 26.3466C14.8505 26.5263 14.663 26.8545 14.663 27.206L14.6356 36.1357L1.5766 43.7216C1.42426 43.8115 1.3266 43.9755 1.3266 44.1552C1.3266 44.3349 1.42426 44.499 1.5766 44.5888L63.7096 80.4598C63.7878 80.5067 63.8737 80.5262 63.9596 80.5262C64.0456 80.5262 64.1354 80.5028 64.2096 80.4598L86.4286 67.5498C86.581 67.46 86.6786 67.2959 86.6786 67.1162C86.6786 66.9365 86.5805 66.7725 86.4281 66.6826ZM64.3151 35.8666L70.7096 39.558L65.2955 42.7025L58.901 39.0111L64.3151 35.8666ZM58.401 39.8783L64.7955 43.5697L64.7174 70.4137L58.3268 66.7223L58.401 39.8783ZM50.3815 37.8041L56.3971 41.2768V41.7143L51.3619 44.6401L44.9674 40.9487L50.3815 37.8041ZM44.4713 41.8158L50.8658 45.5072L50.815 62.3862L44.4244 58.6948L44.4713 41.8158ZM36.4791 26.7888L42.8697 30.4802L38.6353 32.9411L37.4595 33.6247L31.065 29.9333L36.4791 26.7888ZM30.565 30.8005L36.9595 34.4919L36.9048 54.3589L30.5103 50.6675L30.565 30.8005ZM22.565 24.3513L28.9595 28.0427L24.979 30.3552L23.5493 31.1872L17.1548 27.4958L22.565 24.3513ZM16.6509 28.3669L23.0454 32.0583L22.9986 46.3313L16.604 42.6399L16.6509 28.3669ZM63.9599 79.4529L2.82689 44.1559L14.6239 37.3004L14.6044 43.2106C14.6044 43.57 14.7919 43.902 15.1044 44.0817L22.995 48.6364V48.6442L23.0028 48.6403C23.1551 48.7302 23.327 48.7731 23.4989 48.7731C23.6747 48.7731 23.8466 48.7262 24.0028 48.6364L28.5262 46.0075L28.5106 51.2419C28.5106 51.6013 28.702 51.9333 29.0106 52.1091L36.9012 56.6638V56.6677L36.9051 56.6638C37.0574 56.7536 37.2293 56.7966 37.4012 56.7966C37.577 56.7966 37.7488 56.7497 37.9051 56.6599L42.4363 54.0271L42.4207 59.2693C42.4207 59.6287 42.6082 59.9607 42.9207 60.1365L50.8074 64.6912V64.699L50.8113 64.6951C50.9636 64.7849 51.1355 64.8279 51.3074 64.8279C51.4831 64.8279 51.655 64.781 51.8113 64.6912L56.3386 62.0623L56.3229 67.2967C56.3229 67.656 56.5104 67.9881 56.8229 68.1639L64.7096 72.7186V72.7264L64.7136 72.7225C64.8659 72.8123 65.0378 72.8553 65.2096 72.8553C65.3854 72.8553 65.5573 72.8084 65.7136 72.7186L72.6197 68.703C72.9283 68.5233 73.1158 68.1951 73.1158 67.8397L73.1393 60.1639L85.1743 67.1131L63.9599 79.4529Z" fill="#020109"/>
<path d="M61.8652 46.9133C61.8144 46.8821 61.7636 46.8625 61.7089 46.8547L61.6386 46.843C61.3769 46.7727 61.2284 46.9954 61.3066 47.343C61.3691 47.6165 61.5605 47.886 61.7675 48.0032C61.8144 48.0305 61.8613 48.0501 61.9042 48.0579L62.0097 48.0774C62.2636 48.1321 62.4042 47.9016 62.3144 47.554C62.2558 47.2883 62.0683 47.0305 61.8652 46.9133Z" fill="#020109"/>
<path d="M61.8652 51.0071C61.8144 50.9759 61.7636 50.9563 61.7089 50.9485L61.6386 50.9368C61.3769 50.8665 61.2284 51.0891 61.3066 51.4368C61.3691 51.7102 61.5605 51.9798 61.7675 52.0969C61.8144 52.1243 61.8613 52.1438 61.9042 52.1516L62.0097 52.1712C62.2636 52.2259 62.4042 51.9954 62.3144 51.6477C62.2558 51.3821 62.0683 51.1243 61.8652 51.0071Z" fill="#020109"/>
<path d="M61.8652 55.1438C61.8144 55.1126 61.7636 55.093 61.7089 55.0852L61.6386 55.0735C61.3769 55.0032 61.2284 55.2258 61.3066 55.5735C61.3691 55.8469 61.5605 56.1165 61.7675 56.2337C61.8144 56.261 61.8613 56.2805 61.9042 56.2883L62.0097 56.3079C62.2636 56.3626 62.4042 56.1321 62.3144 55.7844C62.2558 55.5188 62.0683 55.261 61.8652 55.1438Z" fill="#020109"/>
<path d="M61.8652 59.2377C61.8144 59.2064 61.7636 59.1869 61.7089 59.1791L61.6386 59.1673C61.3769 59.097 61.2284 59.3197 61.3066 59.6673C61.3691 59.9408 61.5605 60.2103 61.7675 60.3275C61.8144 60.3549 61.8613 60.3744 61.9042 60.3822L62.0097 60.4017C62.2636 60.4564 62.4042 60.2259 62.3144 59.8783C62.2558 59.6127 62.0683 59.3548 61.8652 59.2377Z" fill="#020109"/>
<path d="M61.8652 63.3508C61.8144 63.3196 61.7636 63.3001 61.7089 63.2922L61.6386 63.2805C61.3769 63.2102 61.2284 63.4329 61.3066 63.7805C61.3691 64.054 61.5605 64.3235 61.7675 64.4407C61.8144 64.468 61.8613 64.4876 61.9042 64.4954L62.0097 64.5149C62.2636 64.5696 62.4042 64.3391 62.3144 63.9915C62.2558 63.7258 62.0683 63.468 61.8652 63.3508Z" fill="#020109"/>
<path d="M47.7291 47.6399C47.6783 47.6087 47.6236 47.5891 47.5729 47.5813L47.5025 47.5696C47.2408 47.4993 47.0924 47.7219 47.1705 48.0696C47.233 48.343 47.4244 48.6126 47.6315 48.7297C47.6783 48.7571 47.7252 48.7766 47.7682 48.7844L47.8736 48.804C48.1276 48.8587 48.2682 48.6282 48.1783 48.2805C48.1197 48.0149 47.9283 47.7571 47.7291 47.6399Z" fill="#020109"/>
<path d="M47.7291 51.7337C47.6783 51.7024 47.6236 51.6829 47.5729 51.6751L47.5025 51.6633C47.2408 51.593 47.0924 51.8157 47.1705 52.1633C47.233 52.4368 47.4244 52.7063 47.6315 52.8235C47.6783 52.8508 47.7252 52.8704 47.7682 52.8782L47.8736 52.8977C48.1276 52.9524 48.2682 52.7219 48.1783 52.3743C48.1197 52.1087 47.9283 51.8508 47.7291 51.7337Z" fill="#020109"/>
<path d="M47.7291 55.8705C47.6783 55.8392 47.6236 55.8197 47.5729 55.8119L47.5025 55.8001C47.2408 55.7298 47.0924 55.9525 47.1705 56.3001C47.233 56.5736 47.4244 56.8431 47.6315 56.9603C47.6783 56.9876 47.7252 57.0072 47.7682 57.015L47.8736 57.0345C48.1276 57.0892 48.2682 56.8587 48.1783 56.5111C48.1197 56.2455 47.9283 55.9876 47.7291 55.8705Z" fill="#020109"/>
<path d="M33.803 40.3001C33.7523 40.2688 33.6976 40.2493 33.6468 40.2415L33.5765 40.2298C33.3148 40.1594 33.1663 40.3821 33.2444 40.7298C33.3069 41.0032 33.4984 41.2727 33.7054 41.3899C33.7523 41.4173 33.7991 41.4368 33.8421 41.4446L33.9476 41.4641C34.2015 41.5188 34.3382 41.2884 34.2523 40.9407C34.1937 40.6751 34.0062 40.4172 33.803 40.3001Z" fill="#020109"/>
<path d="M33.803 44.3938C33.7523 44.3626 33.6976 44.343 33.6468 44.3352L33.5765 44.3235C33.3148 44.2532 33.1663 44.4758 33.2444 44.8235C33.3069 45.0969 33.4984 45.3665 33.7054 45.4837C33.7523 45.511 33.7991 45.5305 33.8421 45.5383L33.9476 45.5579C34.2015 45.6126 34.3382 45.3821 34.2523 45.0344C34.1937 44.7688 34.0062 44.511 33.803 44.3938Z" fill="#020109"/>
<path d="M33.803 48.5305C33.7523 48.4993 33.6976 48.4797 33.6468 48.4719L33.5765 48.4602C33.3148 48.3899 33.1663 48.6126 33.2444 48.9602C33.3069 49.2337 33.4984 49.5032 33.7054 49.6204C33.7523 49.6477 33.7991 49.6672 33.8421 49.6751L33.9476 49.6946C34.2015 49.7493 34.3382 49.5188 34.2523 49.1712C34.1937 48.9055 34.0062 48.6477 33.803 48.5305Z" fill="#020109"/>
<path d="M33.803 36.2151C33.7523 36.1839 33.6976 36.1643 33.6468 36.1565L33.5765 36.1448C33.3148 36.0745 33.1663 36.2971 33.2444 36.6448C33.3069 36.9182 33.4984 37.1878 33.7054 37.305C33.7523 37.3323 33.7991 37.3518 33.8421 37.3596L33.9476 37.3792C34.2015 37.4339 34.3382 37.2034 34.2523 36.8557C34.1937 36.5901 34.0062 36.3323 33.803 36.2151Z" fill="#020109"/>
<path d="M20.0221 37.2112C19.9714 37.18 19.9167 37.1604 19.8659 37.1526L19.7956 37.1409C19.5339 37.0706 19.3854 37.2932 19.4635 37.6409C19.526 37.9143 19.7175 38.1839 19.9245 38.301C19.9714 38.3284 20.0182 38.3479 20.0612 38.3557L20.1667 38.3753C20.4206 38.43 20.5612 38.1995 20.4714 37.8518C20.4167 37.5862 20.2253 37.3284 20.0221 37.2112Z" fill="#020109"/>
<path d="M20.0221 41.304C19.9714 41.2727 19.9167 41.2532 19.8659 41.2454L19.7956 41.2337C19.5339 41.1634 19.3854 41.386 19.4635 41.7337C19.526 42.0071 19.7175 42.2766 19.9245 42.3938C19.9714 42.4212 20.0182 42.4407 20.0612 42.4485L20.1667 42.468C20.4206 42.5227 20.5612 42.2923 20.4714 41.9446C20.4167 41.679 20.2253 41.4212 20.0221 41.304Z" fill="#020109"/>
<path d="M20.0221 33.1292C19.9714 33.0979 19.9167 33.0784 19.8659 33.0706L19.7956 33.0589C19.5339 32.9885 19.3854 33.2112 19.4635 33.5589C19.526 33.8323 19.7175 34.1018 19.9245 34.219C19.9714 34.2464 20.0182 34.2659 20.0612 34.2737L20.1667 34.2932C20.4206 34.3479 20.5612 34.1175 20.4714 33.7698C20.4167 33.5042 20.2253 33.2425 20.0221 33.1292Z" fill="#020109"/>
</g>
<defs>
<clipPath id="clip0_656_14908">
<rect width="91" height="90" fill="white" transform="translate(0.659973 0.0244141)"/>
</clipPath>
</defs>
</svg>
